<?xml version="1.0" encoding="iso-8859-1"?>
<!-- Uploaded to: SVG Repo, www.svgrepo.com, Generator: SVG Repo Mixer Tools -->
<svg fill="#000000" height="800px" width="800px" version="1.1" id="Layer_1" xmlns="http://www.w3.org/2000/svg" xmlns:xlink="http://www.w3.org/1999/xlink" 
	 viewBox="0 0 493.04 493.04" xml:space="preserve">
<g>
	<g>
		<path d="M338.968,466.068v-30.572c0-18.72-12.188-34.616-29.056-40.204c-3.196-7.848-9.736-13.744-17.552-16.328l-7.436-178.672
			h0.168c6.376,0,11.556-5.188,11.556-11.564c0-6.368-5.18-11.556-11.556-11.556h-1.128l-2.248-53.952
			c5.512-1.176,10.204-5.232,11.308-10.22l14.688-65.956c0.66-2.952,0.004-5.916-1.84-8.22c-2.092-2.608-5.484-4.168-9.304-4.168
			h-30.78v-15.4C265.788,8.636,257.204,0,246.472,0c-10.62,0-19.2,8.636-19.2,19.256v15.408H196.68
			c-3.824,0-7.212,1.556-9.304,4.164c-1.844,2.3-2.5,5.232-1.836,8.184l14.68,65.964c1.112,4.988,5.804,9.068,11.312,10.244
			l-2.248,53.96h-1.124c-6.372,0-11.556,5.188-11.556,11.556c0,6.376,5.184,11.564,11.556,11.564h0.364l-7.664,178.672
			c-7.8,2.584-14.352,8.476-17.556,16.296c-16.928,5.552-29.228,21.468-29.228,40.236v30.572c-7.704,0-11.556,5.188-11.556,11.556
			v3.536c0,6.368,5.232,11.872,11.604,11.872h184.892c6.368,0,11.504-5.504,11.504-11.872v-3.536
			C350.524,471.256,346.672,466.068,338.968,466.068z"/>
	</g>
</g>
</svg>